<?xml version="1.0" encoding="utf-8"?><svg viewBox="0 0 512 2000" xmlns="http://www.w3.org/2000/svg" xmlns:xlink="http://www.w3.org/1999/xlink"><style>:root>svg{display:none}:root>svg:target{display:block}</style><svg viewBox="0 0 64 64" id="camping" xmlns="http://www.w3.org/2000/svg"><path d="M4.026 7.017c-.553 0-1.005-.447-1.005-1s.442-1 .994-1h.011a1 1 0 110 2zM7.026 7.017c-.553 0-1.005-.447-1.005-1s.442-1 .994-1h.011a1 1 0 110 2zM10.026 7.017c-.553 0-1.005-.447-1.005-1s.442-1 .994-1h.011a1 1 0 110 2z"/><path d="M63.004 60.983h-62a1 1 0 01-1-1V8.017a1 1 0 011-1h62a1 1 0 011 1v51.967a.999.999 0 01-1 .999zm-61-2h60V9.017h-60v49.966z"/><path d="M.996 7.017a1 1 0 01-1-1c0-1.654 1.346-3 3-3a1 1 0 110 2c-.552 0-1 .448-1 1s-.447 1-1 1z"/><path d="M.996 9.017a1 1 0 01-1-1v-2a1 1 0 112 0v2a1 1 0 01-1 1zM62.996 7.017a1 1 0 01-1-1 1 1 0 00-1-1 1 1 0 110-2c1.654 0 3 1.346 3 3a1 1 0 01-1 1z"/><path d="M62.996 9.017a1 1 0 01-1-1v-2a1 1 0 112 0v2a1 1 0 01-1 1zM60.996 5.017h-58a1 1 0 110-2h58a1 1 0 110 2zM19.016 54.001H6.021a1 1 0 110-2h12.994a1 1 0 11.001 2zM58.014 54.001H45.02a1 1 0 110-2h12.994a1 1 0 110 2zM38.502 54.001H25.508a1 1 0 110-2h12.994a1 1 0 110 2zM35.52 57.001h-7.031a1 1 0 110-2h7.031a1 1 0 110 2zM55.02 57.001h-7.006a1 1 0 110-2h7.006a1 1 0 110 2zM16.02 57.001H9.021a1 1 0 110-2h6.998a1 1 0 11.001 2zM59.02 40.995h-54a1 1 0 01-1-1V12.032a1 1 0 011-1h54a1 1 0 011 1v27.963a1 1 0 01-1 1zm-53-2h52V13.032h-52z"/><path d="M54.008 23.022H33.009a1 1 0 110-2h20.999a1 1 0 110 2zM54.008 20.021H33.009a1 1 0 110-2h20.999a1 1 0 110 2zM54.008 26.03H33.009a1 1 0 110-2h20.999a1 1 0 110 2z"/><g><path d="M42.006 29.038h-8.997a1 1 0 110-2h8.997a1 1 0 110 2z"/></g><g><path d="M38.002 34.03h-4.991a1 1 0 110-2h4.991a1 1 0 110 2z"/></g><g><path d="M41.996 33.03h-1.004a1 1 0 110-2h1.004a1 1 0 110 2z"/></g><g><path d="M41.997 35.03c-.366 0-.719-.202-.895-.552l-1.004-2a1 1 0 111.787-.897l1.004 2a1 1 0 01-.892 1.449z"/></g><g><path d="M41.996 35.03h-1a1 1 0 110-2h1a1 1 0 110 2z"/></g><g><path d="M12.519 50.003c-1.93 0-3.5-1.57-3.5-3.5s1.57-3.5 3.5-3.5 3.5 1.57 3.5 3.5-1.571 3.5-3.5 3.5zm0-5c-.827 0-1.5.673-1.5 1.5s.673 1.5 1.5 1.5 1.5-.673 1.5-1.5-.673-1.5-1.5-1.5z"/></g><g><path d="M32.02 50.003c-1.93 0-3.5-1.57-3.5-3.5s1.57-3.5 3.5-3.5 3.5 1.57 3.5 3.5-1.571 3.5-3.5 3.5zm0-5c-.827 0-1.5.673-1.5 1.5s.673 1.5 1.5 1.5 1.5-.673 1.5-1.5-.673-1.5-1.5-1.5z"/></g><g><path d="M51.521 50.003c-1.93 0-3.5-1.57-3.5-3.5s1.57-3.5 3.5-3.5 3.5 1.57 3.5 3.5-1.571 3.5-3.5 3.5zm0-5c-.827 0-1.5.673-1.5 1.5s.673 1.5 1.5 1.5 1.5-.673 1.5-1.5-.673-1.5-1.5-1.5z"/></g><g><path d="M28.999 34.001H8.996a1 1 0 110-2h20.003a1 1 0 110 2z"/><path d="M10.996 34.001a1.001 1.001 0 01-.882-1.471l8.001-15.007a1.001 1.001 0 011.766.942L11.88 33.472a1.002 1.002 0 01-.884.529z"/><path d="M27.001 34.001c-.357 0-.703-.192-.884-.529l-8.002-15.007a1.002 1.002 0 011.766-.942l8.002 15.007a1.002 1.002 0 01-.882 1.471z"/><path d="M18.998 34.001a1 1 0 01-1-1V17.994a1 1 0 112 0v15.007a1 1 0 01-1 1zM28.999 34.001a1 1 0 01-1-1v-1.002a1 1 0 112 0v1.002a1 1 0 01-1 1zM8.996 34.001a1 1 0 01-1-1v-1.002a1 1 0 112 0v1.002a1 1 0 01-1 1z"/></g></svg><svg fill="#FFF" viewBox="0 0 512 512" id="facebook" xmlns="http://www.w3.org/2000/svg"><path d="M512 256C512 114.6 397.4 0 256 0S0 114.6 0 256s114.6 256 256 256c1.5 0 3 0 4.5-.1V312.7h-55v-64.1h55v-47.2c0-54.7 33.4-84.5 82.2-84.5 23.4 0 43.5 1.7 49.3 2.5v57.2h-33.6c-26.5 0-31.7 12.6-31.7 31.1v40.8h63.5l-8.3 64.1h-55.2v189.5C433.7 471.4 512 372.9 512 256z"/></svg><svg viewBox="0 0 512 512" fill="#FFF" id="instagram" xmlns="http://www.w3.org/2000/svg"><path d="M305 256c0 27.063-21.938 49-49 49s-49-21.938-49-49 21.938-49 49-49 49 21.938 49 49zm0 0"/><path d="M370.594 169.305a45.546 45.546 0 00-10.996-16.903 45.514 45.514 0 00-16.903-10.996c-5.18-2.011-12.96-4.406-27.293-5.058-15.504-.707-20.152-.86-59.402-.86-39.254 0-43.902.149-59.402.856-14.332.656-22.118 3.05-27.293 5.062a45.483 45.483 0 00-16.903 10.996 45.572 45.572 0 00-11 16.903c-2.011 5.18-4.406 12.965-5.058 27.297-.707 15.5-.86 20.148-.86 59.402 0 39.25.153 43.898.86 59.402.652 14.332 3.047 22.114 5.058 27.293a45.563 45.563 0 0010.996 16.903 45.514 45.514 0 0016.903 10.996c5.18 2.015 12.965 4.41 27.297 5.062 15.5.707 20.144.856 59.398.856 39.258 0 43.906-.149 59.402-.856 14.332-.652 22.118-3.047 27.297-5.062a48.68 48.68 0 0027.899-27.899c2.011-5.18 4.406-12.96 5.062-27.293.707-15.504.856-20.152.856-59.402 0-39.254-.149-43.902-.856-59.402-.652-14.332-3.047-22.118-5.062-27.297zM256 331.485c-41.691 0-75.488-33.794-75.488-75.485s33.797-75.484 75.488-75.484c41.688 0 75.484 33.793 75.484 75.484S297.688 331.484 256 331.484zm78.469-136.313c-9.742 0-17.64-7.899-17.64-17.64s7.898-17.641 17.64-17.641 17.64 7.898 17.64 17.64c-.004 9.742-7.898 17.64-17.64 17.64zm0 0"/><path d="M256 0C114.637 0 0 114.637 0 256s114.637 256 256 256 256-114.637 256-256S397.363 0 256 0zm146.113 316.605c-.71 15.649-3.199 26.333-6.832 35.684a75.164 75.164 0 01-42.992 42.992c-9.348 3.633-20.035 6.117-35.68 6.832-15.675.715-20.683.887-60.605.887-39.926 0-44.93-.172-60.61-.887-15.644-.715-26.331-3.199-35.68-6.832a72.018 72.018 0 01-26.038-16.957 72.044 72.044 0 01-16.953-26.035c-3.633-9.348-6.121-20.035-6.832-35.68-.723-15.68-.891-20.687-.891-60.609s.168-44.93.887-60.605c.71-15.649 3.195-26.332 6.828-35.684a72.013 72.013 0 0116.96-26.035 72.003 72.003 0 0126.036-16.957c9.352-3.633 20.035-6.117 35.684-6.832C211.07 109.172 216.078 109 256 109s44.93.172 60.605.89c15.649.712 26.332 3.196 35.684 6.825a72.061 72.061 0 0126.04 16.96 72.027 72.027 0 0116.952 26.036c3.637 9.352 6.121 20.035 6.836 35.684.715 15.675.883 20.683.883 60.605s-.168 44.93-.887 60.605zm0 0"/></svg><svg viewBox="0.012 18 46.988 13" id="logo" xmlns="http://www.w3.org/2000/svg"><path fill="#fff" d="M13.434 18l.066 10H15V18zM32 18v10.004h1.805s.015-3.61.035-3.606c.02 0 2.691 3.743 2.715 3.73.027-.007 1.601-.573 1.601-.589 0-.012-2.683-3.441-2.683-3.445 0-.008 2.25-2.512 2.23-2.532-.062-.058-1.281-.585-1.316-.566-.016.012-2.582 2.797-2.582 2.797V18zM2.098 21.05c-.649.137-1.258.552-1.508 1.032a1.675 1.675 0 00.008 1.488c.16.309.625.739 1.347 1.246.782.555 1.078.832 1.153 1.094.113.387-.059.75-.434.93-.187.09-.27.101-.602.086-.433-.02-.73-.13-1.171-.446-.141-.097-.27-.168-.286-.152-.015.016-.156.227-.312.469l-.281.433.105.082c.063.043.25.157.422.254 1.188.66 2.945.555 3.836-.23a1.79 1.79 0 00.602-1.645c-.086-.582-.407-.964-1.415-1.695-.792-.574-1.167-.89-1.253-1.058-.168-.329-.051-.645.304-.829.18-.093.254-.101.61-.086.347.012.453.04.742.176l.336.164.261-.41c.145-.226.25-.426.239-.445-.047-.07-.598-.301-.942-.39-.457-.122-1.34-.157-1.761-.067zm7.933.884c.79.37 1.211 1.53 1.04 2.851-.06.469-.227 1.035-.383 1.297-.157.27-.461.563-.704.676-.445.21-1.105.129-1.523-.188-.578-.441-.895-1.523-.774-2.648.114-1.031.485-1.684 1.133-1.985.336-.156.88-.156 1.211-.003zm-.719-1.149c-.472.106-.847.317-1.253.703l-.368.352V21H6v10h1.691v-4.078l.325.316c.593.582 1.289.817 2.101.703.531-.074.906-.21 1.301-.476 1.11-.742 1.723-2.223 1.555-3.77-.16-1.468-.914-2.484-2.13-2.87-.312-.102-1.163-.122-1.53-.04zm6.946.215s.055 5.285.09 5.438c.136.582.527 1.136.965 1.375.402.218.726.285 1.332.285.863-.004 1.386-.211 2.027-.801L21 27v1h1.742l-.023-7H21s.023 4.348 0 4.5c-.102.61-.574 1.11-1.055 1.27-.285.097-.785.175-1.086.128-.308-.05-.828-.39-.859-.898v-4.977zm14.484 7s-.055-5.285-.09-5.438c-.136-.582-.527-1.136-.965-1.375-.402-.218-.726-.285-1.332-.285-.863.004-1.386.211-2.027.801L26 22v-1h-1.742l.023 7H26s-.023-4.348 0-4.5c.102-.61.574-1.11 1.055-1.27.285-.097.66-.171 1.086-.128.425.046.89.433.859.898v4.977z"/><path fill="#e65c00" fill-rule="evenodd" d="M40 20.5V22l6 2-6 2.602V28l7-3v-2z"/></svg><svg viewBox="0 0 512 512" fill="#FFF" id="reddit" xmlns="http://www.w3.org/2000/svg"><path d="M309.605 343.348c-11.468 11.468-36.042 15.562-53.554 15.562-17.563 0-42.086-4.094-53.555-15.562a6.887 6.887 0 00-9.777 0 6.887 6.887 0 000 9.777c18.176 18.176 53.094 19.61 63.332 19.61s45.105-1.434 63.336-19.61a6.987 6.987 0 000-9.777 6.892 6.892 0 00-9.782 0zm0 0M224 282.676C224 267.98 212.02 256 197.324 256c-14.691 0-26.676 11.98-26.676 26.676 0 14.691 11.985 26.676 26.676 26.676 14.696 0 26.676-11.98 26.676-26.676zm0 0"/><path d="M256 0C114.637 0 0 114.637 0 256s114.637 256 256 256 256-114.637 256-256S397.363 0 256 0zm148.531 290.148c.563 3.688.871 7.426.871 11.215 0 57.446-66.867 103.989-149.351 103.989s-149.352-46.543-149.352-103.989c0-3.84.309-7.629.871-11.316-13.004-5.836-22.066-18.89-22.066-34.047 0-20.582 16.691-37.324 37.324-37.324 10.035 0 19.098 3.941 25.805 10.394 25.906-18.687 61.75-30.62 101.633-31.644 0-.512 18.636-89.293 18.636-89.293a6.57 6.57 0 012.868-4.196c1.484-.972 3.277-1.28 5.02-.921l62.054 13.207c4.351-8.805 13.308-14.899 23.804-14.899 14.747 0 26.676 11.93 26.676 26.676s-11.93 26.676-26.676 26.676c-14.285 0-25.855-11.266-26.52-25.395l-55.554-11.828-16.996 80.027c39.168 1.38 74.344 13.258 99.84 31.692 6.707-6.5 15.82-10.496 25.906-10.496 20.637 0 37.324 16.691 37.324 37.324 0 15.258-9.164 28.312-22.117 34.148zm0 0"/><path d="M314.676 256C299.98 256 288 267.98 288 282.676c0 14.691 11.98 26.676 26.676 26.676 14.691 0 26.676-11.985 26.676-26.676 0-14.696-11.98-26.676-26.676-26.676zm0 0"/></svg><svg viewBox="0 0 64 64" id="speed" xmlns="http://www.w3.org/2000/svg"><path d="M45 43c3.86 0 7-3.14 7-7s-3.14-7-7-7-7 3.14-7 7 3.14 7 7 7zm0-12c2.757 0 5 2.243 5 5s-2.243 5-5 5-5-2.243-5-5 2.243-5 5-5z"/><path d="M45 39c1.654 0 3-1.346 3-3s-1.346-3-3-3-3 1.346-3 3 1.346 3 3 3zm0-4c.551 0 1 .449 1 1s-.449 1-1 1-1-.449-1-1 .449-1 1-1z"/><path d="M51.117 52.1l.687-1.1H63.22l-1.309-6.542-6.026-5.021A24.73 24.73 0 0056 37.19c0-.064-.006-.126-.007-.19H56V4c0-1.654-1.346-3-3-3H4C2.346 1 1 2.346 1 4v42c0 1.654 1.346 3 3 3h23.18l-.4 2h11.416l.687 1.1-.388.971a6.008 6.008 0 001.97 7.028l1.893 1.42 1.915-3.829A6.197 6.197 0 0146 62v1h2.48l1.664-2.08a8.258 8.258 0 001.217-8.211zM40.554 51l-1.097-1.755A22.673 22.673 0 0138.238 47h13.523a22.786 22.786 0 01-1.219 2.245L49.446 51zm-2.13-24h13.152A22.653 22.653 0 0154 37.19c0 2.68-.472 5.32-1.383 7.81H37.383A22.718 22.718 0 0136 37.19c0-3.566.84-7.037 2.424-10.19zm1.133-2c.09-.141.17-.288.263-.428l2.902-4.354a2.735 2.735 0 014.555.001l2.902 4.354c.093.14.173.286.263.428H39.557zm20.532 20.542L60.78 49h-7.788a24.701 24.701 0 002.568-7.232zM4 3h49c.551 0 1 .449 1 1v9H3V4c0-.551.449-1 1-1zm23.58 44H4c-.551 0-1-.449-1-1V15h51v12.479a24.8 24.8 0 00-2.156-4.017l-2.902-4.354C48.061 17.789 46.588 17 45 17s-3.061.789-3.941 2.109l-2.902 4.354A24.662 24.662 0 0034 37.19c0 .753.047 1.501.115 2.246l-6.026 5.021zm2.331-1.458l4.529-3.774A24.701 24.701 0 0037.008 49H29.22zm18.672 14.129l-.708.884a8.18 8.18 0 00-2.289-4.384l-1.859-1.859-2.084 4.169a4.007 4.007 0 01-1.29-4.668l.324-.813h8.646l.181.453a6.256 6.256 0 01-.921 6.218z"/><path d="M11 5H5v6h6zM9 9H7V7h2zM19 5h-6v6h6zm-2 4h-2V7h2zM27 5h-6v6h6zm-2 4h-2V7h2zM29 17h-6v20h-2V25h-6v12h-2v-8H7v8H5v2h26v-2h-2zm-4 2h2v18h-2zm-8 8h2v10h-2zm-8 4h2v6H9zM5 17h2v2H5zM9 17h10v2H9zM5 21h2v2H5z"/><path d="M9 21h10v2H9z"/></svg><svg viewBox="0 0 201.506 201.506" id="web" xmlns="http://www.w3.org/2000/svg"><path d="M100.753 0C45.198 0 0 45.198 0 100.753s45.198 100.753 100.753 100.753 100.753-45.198 100.753-100.753S156.308 0 100.753 0zm0 194.56c-51.726 0-93.807-42.081-93.807-93.807S49.027 6.946 100.753 6.946s93.807 42.081 93.807 93.807-42.081 93.807-93.807 93.807z"/><path d="M201.172 93.691c-1.044-15.048-5.326-29.314-12.725-42.404l-.98-1.734H74.324c-14.601 0-26.477 11.878-26.477 26.479V97.34h153.58l-.255-3.649zM54.673 90.513V76.032c0-10.837 8.815-19.652 19.651-19.652h109.138a92.52 92.52 0 0110.578 34.133H54.673z"/><path d="M73.446 63.206c-6.588 0-11.947 5.361-11.947 11.947 0 6.586 5.359 11.947 11.947 11.947 6.588 0 11.947-5.361 11.947-11.947 0-6.586-5.359-11.947-11.947-11.947zm0 17.067a5.126 5.126 0 01-5.12-5.12 5.126 5.126 0 015.12-5.12 5.126 5.126 0 015.12 5.12 5.126 5.126 0 01-5.12 5.12zM100.753 63.206c-6.588 0-11.947 5.361-11.947 11.947 0 6.586 5.359 11.947 11.947 11.947 6.588 0 11.947-5.361 11.947-11.947 0-6.586-5.359-11.947-11.947-11.947zm0 17.067a5.126 5.126 0 01-5.12-5.12c0-2.823 2.297-5.12 5.12-5.12s5.12 2.297 5.12 5.12a5.126 5.126 0 01-5.12 5.12zM128.06 63.148c-6.62 0-12.005 5.385-12.005 12.005 0 6.62 5.385 12.005 12.005 12.005 6.62 0 12.005-5.385 12.005-12.005-.001-6.62-5.385-12.005-12.005-12.005zm0 17.067c-2.79 0-5.062-2.27-5.062-5.062s2.272-5.062 5.062-5.062c2.79 0 5.062 2.27 5.062 5.062s-2.272 5.062-5.062 5.062zM201.173 93.689l-.22-3.176H47.846v95.928l1.674.992a100.574 100.574 0 0051.232 14.013c55.523 0 100.693-45.172 100.693-100.693.001-2.132-.086-4.378-.272-7.064zM100.753 194.62a93.767 93.767 0 01-46.08-12.092V97.34h139.872c.049 1.21.075 2.33.075 3.413 0 51.758-42.109 93.867-93.867 93.867z"/><path d="M99.046 110.993c-13.175 0-23.893 10.718-23.893 23.893s10.718 23.893 23.893 23.893 23.893-10.718 23.893-23.893-10.717-23.893-23.893-23.893zm0 40.96c-9.411 0-17.067-7.656-17.067-17.067 0-9.411 7.656-17.067 17.067-17.067s17.067 7.656 17.067 17.067c0 9.411-7.656 17.067-17.067 17.067z"/><path d="M139.006 170.02l-22.187-22.187a3.412 3.412 0 10-4.826 4.826l22.187 22.187c.666.667 1.539 1 2.413 1a3.412 3.412 0 002.413-5.826z"/></svg><svg viewBox="0 0 64 64" id="web-site" xmlns="http://www.w3.org/2000/svg"><path d="M61 44h-3V3a1 1 0 00-1-1H3a1 1 0 00-1 1v48a1 1 0 001 1h23.18A3.01 3.01 0 0029 54h1v7a1 1 0 001 1h30a1 1 0 001-1V45a1 1 0 00-1-1zM4 4h52v4H4zm22 35v11H4V10h52v34h-2v-5a3.009 3.009 0 00-3-3H29a3.009 3.009 0 00-3 3zm26 0v1H28v-1a1 1 0 011-1h22a1 1 0 011 1zm-22 6v7h-1a1 1 0 01-1-1v-9h24v2H31a1 1 0 00-1 1zm4.86 1A4.017 4.017 0 0132 48.86V46zM32 60v-2.86A4.017 4.017 0 0134.86 60zm28 0h-2.86A4.017 4.017 0 0160 57.14zm0-4.91A5.992 5.992 0 0055.09 60H36.91A5.992 5.992 0 0032 55.09v-4.18A5.992 5.992 0 0036.91 46h18.18A5.992 5.992 0 0060 50.91zm0-6.23A4.017 4.017 0 0157.14 46H60z"/><path d="M46 47a6 6 0 106 6 6.006 6.006 0 00-6-6zm0 10a4 4 0 114-4 4 4 0 01-4 4zM27 35a3 3 0 000-6H13a3 3 0 103 3 2.966 2.966 0 00-.184-1h8.368A2.966 2.966 0 0024 32a3 3 0 003 3zm1-3a1 1 0 11-1-1 1 1 0 011 1zm-14 0a1 1 0 11-1-1 1 1 0 011 1zM31.77 15.36A.992.992 0 0031 15H12v-2a1 1 0 00-1-1H6v2h4v13a1 1 0 001 1h18a1 1 0 00.98-.82l2-11a.977.977 0 00-.21-.82zM28.17 26H12v-9h17.8zM6 5h2v2H6zM10 5h2v2h-2zM14 5h2v2h-2zM43 29a7 7 0 10-7-7 7.008 7.008 0 007 7zm0-12a5 5 0 11-5 5 5.006 5.006 0 015-5z"/><path d="M42 25a1 1 0 00.707-.293l4-4-1.414-1.414L42 22.586l-1.293-1.293-1.414 1.414 2 2A1 1 0 0042 25zM36 31h4v2h-4zM42 31h8v2h-8z"/></svg><svg viewBox="0 0 64 64" id="website" xmlns="http://www.w3.org/2000/svg"><path d="M.019 60.996a1 1 0 001 1h39.992a1 1 0 001-1v-3.004h3.004a1 1 0 001-1v-2.998h3.016a1 1 0 001-1V21.976c5.964-.372 11.218-3.952 13.872-9.537a1.002 1.002 0 000-.859C61.095 5.674 55.385 2.005 49 2.005c-6.173 0-11.706 3.436-14.604 8.999H11.021c-1.654 0-3 1.346-3 3v.998h-.999l-.009.002-.009-.002c-1.654 0-3 1.346-3 3v1.004h-.985l-.009.002-.009-.002c-1.654 0-3 1.346-3 3v2c0 .031.015.057.018.087v36.903zm39.992-1H2.019V25.005h2.004v31.987a1 1 0 001 1h34.988zm4.004-4.004H6.022V21.001h2.016v31.993a1 1 0 001 1h34.977zm-33.977-3.998V17.003h27.216c2.833 2.938 6.633 4.732 10.776 4.975v30.017H10.038zm38.961-47.99c5.45 0 10.345 3.055 12.885 8.005-2.539 4.95-7.435 8.004-12.885 8.004-4.083 0-7.854-1.715-10.558-4.656-.023-.027-.043-.056-.07-.08a15.237 15.237 0 01-2.257-3.268c2.54-4.95 7.435-8.005 12.885-8.005zm-37.978 8.999h1.02c-.552 0-.994.447-.994 1s.452 1 1.005 1a1 1 0 100-2h2.989c-.552 0-.994.447-.994 1s.452 1 1.005 1a1 1 0 100-2h2.989c-.552 0-.994.447-.994 1s.452 1 1.005 1a1 1 0 100-2H34.39c.364.701.771 1.369 1.216 2H10.021v-1a1 1 0 011-1zm-4.016 3.998l.009-.002.009.002h1.016v2H6.005v-1a1 1 0 011-1zm-4.004 4.004l.009-.002.009.002h1.004v2H2.001v-1a1 1 0 011-1z"/><path d="M43.003 22.004H15.011a1 1 0 00-1 1v11.999a1 1 0 001 1h27.992a1 1 0 001-1V23.004a1 1 0 00-1-1zm-16.996 9.6l1.702 2.129-.201.27h-3.42zm8-2.935l4.001 5.334h-8.002zm7.996 5.334h-1.497l-5.699-7.6c-.029-.04-.072-.062-.106-.095-.034-.034-.055-.076-.094-.105-.016-.012-.034-.014-.051-.024a.956.956 0 00-.194-.092c-.055-.021-.105-.046-.162-.057-.067-.013-.132-.01-.2-.01-.062.001-.121-.002-.181.01-.062.012-.116.037-.175.061a.961.961 0 00-.186.089c-.017.011-.036.013-.052.024-.04.029-.061.072-.095.105-.033.034-.076.056-.105.095l-4.258 5.677-2.161-2.702c-.024-.03-.058-.044-.085-.07-.026-.027-.041-.062-.071-.086-.024-.02-.056-.024-.081-.042a1.072 1.072 0 00-.356-.147 1.014 1.014 0 00-.19-.015.93.93 0 00-.183.015.95.95 0 00-.188.059.94.94 0 00-.17.087c-.026.018-.058.022-.083.043-.03.024-.045.06-.072.086-.026.026-.06.041-.084.07l-3.7 4.625h-5.515v-9.999h25.992v9.998zM15.011 39.994h14.996a1 1 0 100-2H15.011a1 1 0 100 2zM15.011 43.994h3.995a1 1 0 100-2h-3.995a1 1 0 100 2zM43.003 41.994H24.007a1 1 0 100 2h18.996a1 1 0 100-2zM37.007 45.994H15.011a1 1 0 100 2h21.996a1 1 0 100-2zM43.003 45.994h-1.996a1 1 0 100 2h1.996a1 1 0 100-2zM43.003 37.994h-8.996a1 1 0 100 2h8.996a1 1 0 100-2z"/><path d="M19.037 28.004a1 1 0 100-2h-.011c-.552 0-.994.447-.994 1s.452 1 1.005 1zM49.001 18.011c3.309 0 6-2.692 6-6.002s-2.691-6.003-6-6.003-6 2.693-6 6.003 2.691 6.002 6 6.002zm0-10.005c2.206 0 4 1.796 4 4.003s-1.794 4.002-4 4.002-4-1.795-4-4.002 1.794-4.003 4-4.003z"/></svg></svg>