<?xml version="1.0" encoding="utf-8"?><svg viewBox="0 0 512 2000" xmlns="http://www.w3.org/2000/svg" xmlns:xlink="http://www.w3.org/1999/xlink"><style>:root>svg{display:none}:root>svg:target{display:block}</style><svg viewBox="0 0 64 64" id="camping" xmlns="http://www.w3.org/2000/svg"><path d="M4.026 7.017c-.553 0-1.005-.447-1.005-1s.442-1 .994-1h.011a1 1 0 110 2zM7.026 7.017c-.553 0-1.005-.447-1.005-1s.442-1 .994-1h.011a1 1 0 110 2zM10.026 7.017c-.553 0-1.005-.447-1.005-1s.442-1 .994-1h.011a1 1 0 110 2z"/><path d="M63.004 60.983h-62a1 1 0 01-1-1V8.017a1 1 0 011-1h62a1 1 0 011 1v51.967a.999.999 0 01-1 .999zm-61-2h60V9.017h-60v49.966z"/><path d="M.996 7.017a1 1 0 01-1-1c0-1.654 1.346-3 3-3a1 1 0 110 2c-.552 0-1 .448-1 1s-.447 1-1 1z"/><path d="M.996 9.017a1 1 0 01-1-1v-2a1 1 0 112 0v2a1 1 0 01-1 1zM62.996 7.017a1 1 0 01-1-1 1 1 0 00-1-1 1 1 0 110-2c1.654 0 3 1.346 3 3a1 1 0 01-1 1z"/><path d="M62.996 9.017a1 1 0 01-1-1v-2a1 1 0 112 0v2a1 1 0 01-1 1zM60.996 5.017h-58a1 1 0 110-2h58a1 1 0 110 2zM19.016 54.001H6.021a1 1 0 110-2h12.994a1 1 0 11.001 2zM58.014 54.001H45.02a1 1 0 110-2h12.994a1 1 0 110 2zM38.502 54.001H25.508a1 1 0 110-2h12.994a1 1 0 110 2zM35.52 57.001h-7.031a1 1 0 110-2h7.031a1 1 0 110 2zM55.02 57.001h-7.006a1 1 0 110-2h7.006a1 1 0 110 2zM16.02 57.001H9.021a1 1 0 110-2h6.998a1 1 0 11.001 2zM59.02 40.995h-54a1 1 0 01-1-1V12.032a1 1 0 011-1h54a1 1 0 011 1v27.963a1 1 0 01-1 1zm-53-2h52V13.032h-52z"/><path d="M54.008 23.022H33.009a1 1 0 110-2h20.999a1 1 0 110 2zM54.008 20.021H33.009a1 1 0 110-2h20.999a1 1 0 110 2zM54.008 26.03H33.009a1 1 0 110-2h20.999a1 1 0 110 2z"/><g><path d="M42.006 29.038h-8.997a1 1 0 110-2h8.997a1 1 0 110 2z"/></g><g><path d="M38.002 34.03h-4.991a1 1 0 110-2h4.991a1 1 0 110 2z"/></g><g><path d="M41.996 33.03h-1.004a1 1 0 110-2h1.004a1 1 0 110 2z"/></g><g><path d="M41.997 35.03c-.366 0-.719-.202-.895-.552l-1.004-2a1 1 0 111.787-.897l1.004 2a1 1 0 01-.892 1.449z"/></g><g><path d="M41.996 35.03h-1a1 1 0 110-2h1a1 1 0 110 2z"/></g><g><path d="M12.519 50.003c-1.93 0-3.5-1.57-3.5-3.5s1.57-3.5 3.5-3.5 3.5 1.57 3.5 3.5-1.571 3.5-3.5 3.5zm0-5c-.827 0-1.5.673-1.5 1.5s.673 1.5 1.5 1.5 1.5-.673 1.5-1.5-.673-1.5-1.5-1.5z"/></g><g><path d="M32.02 50.003c-1.93 0-3.5-1.57-3.5-3.5s1.57-3.5 3.5-3.5 3.5 1.57 3.5 3.5-1.571 3.5-3.5 3.5zm0-5c-.827 0-1.5.673-1.5 1.5s.673 1.5 1.5 1.5 1.5-.673 1.5-1.5-.673-1.5-1.5-1.5z"/></g><g><path d="M51.521 50.003c-1.93 0-3.5-1.57-3.5-3.5s1.57-3.5 3.5-3.5 3.5 1.57 3.5 3.5-1.571 3.5-3.5 3.5zm0-5c-.827 0-1.5.673-1.5 1.5s.673 1.5 1.5 1.5 1.5-.673 1.5-1.5-.673-1.5-1.5-1.5z"/></g><g><path d="M28.999 34.001H8.996a1 1 0 110-2h20.003a1 1 0 110 2z"/><path d="M10.996 34.001a1.001 1.001 0 01-.882-1.471l8.001-15.007a1.001 1.001 0 011.766.942L11.88 33.472a1.002 1.002 0 01-.884.529z"/><path d="M27.001 34.001c-.357 0-.703-.192-.884-.529l-8.002-15.007a1.002 1.002 0 011.766-.942l8.002 15.007a1.002 1.002 0 01-.882 1.471z"/><path d="M18.998 34.001a1 1 0 01-1-1V17.994a1 1 0 112 0v15.007a1 1 0 01-1 1zM28.999 34.001a1 1 0 01-1-1v-1.002a1 1 0 112 0v1.002a1 1 0 01-1 1zM8.996 34.001a1 1 0 01-1-1v-1.002a1 1 0 112 0v1.002a1 1 0 01-1 1z"/></g></svg><svg fill="#FFF" viewBox="0 0 512 512" id="facebook" xmlns="http://www.w3.org/2000/svg"><path d="M512 256C512 114.6 397.4 0 256 0S0 114.6 0 256s114.6 256 256 256c1.5 0 3 0 4.5-.1V312.7h-55v-64.1h55v-47.2c0-54.7 33.4-84.5 82.2-84.5 23.4 0 43.5 1.7 49.3 2.5v57.2h-33.6c-26.5 0-31.7 12.6-31.7 31.1v40.8h63.5l-8.3 64.1h-55.2v189.5C433.7 471.4 512 372.9 512 256z"/></svg><svg viewBox="0 0 512 512" fill="#FFF" id="instagram" xmlns="http://www.w3.org/2000/svg"><path d="M305 256c0 27.063-21.938 49-49 49s-49-21.938-49-49 21.938-49 49-49 49 21.938 49 49zm0 0"/><path d="M370.594 169.305a45.546 45.546 0 00-10.996-16.903 45.514 45.514 0 00-16.903-10.996c-5.18-2.011-12.96-4.406-27.293-5.058-15.504-.707-20.152-.86-59.402-.86-39.254 0-43.902.149-59.402.856-14.332.656-22.118 3.05-27.293 5.062a45.483 45.483 0 00-16.903 10.996 45.572 45.572 0 00-11 16.903c-2.011 5.18-4.406 12.965-5.058 27.297-.707 15.5-.86 20.148-.86 59.402 0 39.25.153 43.898.86 59.402.652 14.332 3.047 22.114 5.058 27.293a45.563 45.563 0 0010.996 16.903 45.514 45.514 0 0016.903 10.996c5.18 2.015 12.965 4.41 27.297 5.062 15.5.707 20.144.856 59.398.856 39.258 0 43.906-.149 59.402-.856 14.332-.652 22.118-3.047 27.297-5.062a48.68 48.68 0 0027.899-27.899c2.011-5.18 4.406-12.96 5.062-27.293.707-15.504.856-20.152.856-59.402 0-39.254-.149-43.902-.856-59.402-.652-14.332-3.047-22.118-5.062-27.297zM256 331.485c-41.691 0-75.488-33.794-75.488-75.485s33.797-75.484 75.488-75.484c41.688 0 75.484 33.793 75.484 75.484S297.688 331.484 256 331.484zm78.469-136.313c-9.742 0-17.64-7.899-17.64-17.64s7.898-17.641 17.64-17.641 17.64 7.898 17.64 17.64c-.004 9.742-7.898 17.64-17.64 17.64zm0 0"/><path d="M256 0C114.637 0 0 114.637 0 256s114.637 256 256 256 256-114.637 256-256S397.363 0 256 0zm146.113 316.605c-.71 15.649-3.199 26.333-6.832 35.684a75.164 75.164 0 01-42.992 42.992c-9.348 3.633-20.035 6.117-35.68 6.832-15.675.715-20.683.887-60.605.887-39.926 0-44.93-.172-60.61-.887-15.644-.715-26.331-3.199-35.68-6.832a72.018 72.018 0 01-26.038-16.957 72.044 72.044 0 01-16.953-26.035c-3.633-9.348-6.121-20.035-6.832-35.68-.723-15.68-.891-20.687-.891-60.609s.168-44.93.887-60.605c.71-15.649 3.195-26.332 6.828-35.684a72.013 72.013 0 0116.96-26.035 72.003 72.003 0 0126.036-16.957c9.352-3.633 20.035-6.117 35.684-6.832C211.07 109.172 216.078 109 256 109s44.93.172 60.605.89c15.649.712 26.332 3.196 35.684 6.825a72.061 72.061 0 0126.04 16.96 72.027 72.027 0 0116.952 26.036c3.637 9.352 6.121 20.035 6.836 35.684.715 15.675.883 20.683.883 60.605s-.168 44.93-.887 60.605zm0 0"/></svg><svg viewBox="0.012 18 46.988 13" id="logo" xmlns="http://www.w3.org/2000/svg"><path fill="#fff" d="M13.434 18l.066 10H15V18zM32 18v10.004h1.805s.015-3.61.035-3.606c.02 0 2.691 3.743 2.715 3.73.027-.007 1.601-.573 1.601-.589 0-.012-2.683-3.441-2.683-3.445 0-.008 2.25-2.512 2.23-2.532-.062-.058-1.281-.585-1.316-.566-.016.012-2.582 2.797-2.582 2.797V18zM2.098 21.05c-.649.137-1.258.552-1.508 1.032a1.675 1.675 0 00.008 1.488c.16.309.625.739 1.347 1.246.782.555 1.078.832 1.153 1.094.113.387-.059.75-.434.93-.187.09-.27.101-.602.086-.433-.02-.73-.13-1.171-.446-.141-.097-.27-.168-.286-.152-.015.016-.156.227-.312.469l-.281.433.105.082c.063.043.25.157.422.254 1.188.66 2.945.555 3.836-.23a1.79 1.79 0 00.602-1.645c-.086-.582-.407-.964-1.415-1.695-.792-.574-1.167-.89-1.253-1.058-.168-.329-.051-.645.304-.829.18-.093.254-.101.61-.086.347.012.453.04.742.176l.336.164.261-.41c.145-.226.25-.426.239-.445-.047-.07-.598-.301-.942-.39-.457-.122-1.34-.157-1.761-.067zm7.933.884c.79.37 1.211 1.53 1.04 2.851-.06.469-.227 1.035-.383 1.297-.157.27-.461.563-.704.676-.445.21-1.105.129-1.523-.188-.578-.441-.895-1.523-.774-2.648.114-1.031.485-1.684 1.133-1.985.336-.156.88-.156 1.211-.003zm-.719-1.149c-.472.106-.847.317-1.253.703l-.368.352V21H6v10h1.691v-4.078l.325.316c.593.582 1.289.817 2.101.703.531-.074.906-.21 1.301-.476 1.11-.742 1.723-2.223 1.555-3.77-.16-1.468-.914-2.484-2.13-2.87-.312-.102-1.163-.122-1.53-.04zm6.946.215s.055 5.285.09 5.438c.136.582.527 1.136.965 1.375.402.218.726.285 1.332.285.863-.004 1.386-.211 2.027-.801L21 27v1h1.742l-.023-7H21s.023 4.348 0 4.5c-.102.61-.574 1.11-1.055 1.27-.285.097-.785.175-1.086.128-.308-.05-.828-.39-.859-.898v-4.977zm14.484 7s-.055-5.285-.09-5.438c-.136-.582-.527-1.136-.965-1.375-.402-.218-.726-.285-1.332-.285-.863.004-1.386.211-2.027.801L26 22v-1h-1.742l.023 7H26s-.023-4.348 0-4.5c.102-.61.574-1.11 1.055-1.27.285-.097.66-.171 1.086-.128.425.046.89.433.859.898v4.977z"/><path fill="#e65c00" fill-rule="evenodd" d="M40 20.5V22l6 2-6 2.602V28l7-3v-2z"/></svg><svg fill="none" viewBox="0 0 186 77" id="logo_w" xmlns="http://www.w3.org/2000/svg"><path d="M18.206 41.4h-.464L18.67 77H.23V14.032h25.86L36.76 47.893h.348l9.161-33.861h26.672V77H53.807l.58-35.369-.464-.116L42.906 77H28.991L18.206 41.4z" fill="#fff"/><path d="M127.56 77V14.032h27.136c9.625 0 17.162 2.783 22.613 8.233 5.45 5.45 8.233 13.22 8.233 22.961 0 10.205-2.667 18.09-8.118 23.54-5.45 5.45-12.987 8.234-22.728 8.234H127.56zm16.351-48.82v34.788h7.77c6.262 0 10.668-1.391 13.335-4.174 2.668-2.783 4.059-7.306 4.059-13.568 0-11.364-5.798-17.047-17.394-17.047h-7.77z" fill="url(#epaint0_linear)"/><path d="M73.29 62.968L96.945 0h16.698l23.541 62.968h-17.047l-4.87-14.147H95.206L90.22 62.968H73.29zm31.773-45.458l-5.566 17.28h11.248l-5.45-17.28h-.232zM1.74 4.29c.58-.927 2.435-1.16 2.899 0 .58-.811 1.855-.927 2.667-.463.696.464.696 1.043.696 1.855 0 .58-.116 1.392 0 1.856.115.347 0 .347.463.463.232.116.696-.116.696.348 0 .348-1.391.232-1.623.232-.232 0-.928.116-1.16 0-.464-.464.232-.464.464-.58.232-.232.348-.116.464-.58.116-.463 0-.927 0-1.391 0-.812-.116-2.087-1.276-1.74-1.16.232-1.044 1.624-1.044 2.552 0 .232-.116.811 0 1.043.232.232.348 0 .58.116 1.16.464-.58.464-1.043.464-.348 0-1.508.116-1.508-.348 0-.232.812-.232 1.044-.464.232-.347 0-1.16 0-1.507 0-.58.116-1.276-.348-1.74-.696-.695-1.74.232-1.856 1.044-.116.464 0 1.044 0 1.508 0 .116-.116.464 0 .695.116.464.232.116.58.348 1.392.58-.927.58-1.391.58-.232 0-1.392 0-.928-.464.232-.116.464 0 .58-.116.58-.232.348-.695.348-1.275s.116-1.392 0-1.972c-.116-.463-.232-.348-.58-.463C.348 4.175 0 4.522 0 4.059c.116-.348 1.855-.464 1.74.232.115 0 .115 0 0 0zM10.9 6.262v.348c0 .812.696 1.507 1.508 1.507.811 0 1.043-.464 1.391-1.043 0-.116.116-.464.464-.348.696.232.116 1.16-.232 1.391-.464.348-.928.58-1.507.58-1.508 0-2.436-1.044-2.436-2.551 0-1.276.464-2.435 1.74-2.667 1.275-.232 2.435.464 2.667 1.74.116 1.159-.58.927-1.507.927-.696 0-1.392 0-2.088.116 0-.116 0-.116 0 0zm2.435-1.856c-.811-.695-2.319-.115-2.319 1.044H13.8c-.116-.348-.232-.696-.464-1.044zM19.134 4.29c0-.463.348-1.97-.464-1.739-.58.116-.696-.464-.232-.696.116-.116.812 0 .928 0 .348.116.348 0 .464.348.116.348 0 .928 0 1.276v3.479c0 .232-.116.58 0 .811.232.464.116.232.464.348.116.116.58-.116.58.232 0 .58-1.044.464-1.392.464-.116-.116-.232-.232-.232-.464-1.276 1.508-4.29 0-3.827-1.971-.116-1.044.464-2.203 1.508-2.551.695-.464 1.971-.348 2.203.463zm-2.9 1.856c0 .812.465 2.087 1.508 2.087 1.044.116 1.508-1.16 1.508-2.087-.116-2.435-3.131-2.551-3.015 0zM22.613 4.523c0-.348-1.044.116-1.044-.464 0-.348 1.044-.232 1.276-.232 1.276-.232.348 3.247.58 3.943.232.348.927 0 .927.348.116.463-.695.347-.927.347-.348 0-1.972.116-1.856-.232 0-.231.812-.231 1.044-.58.116-.231 0-.58 0-.811v-2.32zm-.348-1.972c0-.464.696-.58.928-.348.464.348.232.928-.348.928-.232 0-.58-.232-.58-.58zM26.208 4.639c0 .116.116.116.116.231 0 .928-1.508.348-1.044-.695.696-1.392 3.363-.928 3.711.464 0 .463-.348 3.594.348 3.478.58-.116.232-1.043.348-1.275.348-.464.58-.232.696.232.348 1.275-1.624 2.32-2.204.928-.695.927-2.55.927-3.13-.116-.58-.928.231-1.972 1.159-2.204.58-.116 1.392.232 1.74-.464.695-1.16-1.276-1.623-1.972-.811l.232.232zm1.508 1.739c-.58.116-1.508 0-1.856.464-.696.696.232 1.275.928 1.275 1.275 0 1.391-1.043 1.391-1.97-.232.115-.348.115-.463.231zM37.225 4.639c0 .116.116.116.116.232 0 .927-1.392.348-1.16-.58.58-1.508 3.363-1.16 3.71.348 0 .58-.347 3.71.465 3.363.58-.232.116-.696.232-1.16.231-.696.58-.348.695.116.348 1.276-1.507 2.32-2.203.928-.696.928-2.435.928-3.131 0-.812-.928.116-2.088 1.044-2.32.58-.115 1.507.117 1.855-.463.696-1.16-1.391-1.508-1.971-.696.232.116.348.232.348.232zm1.391 1.74c-.58.115-1.507 0-1.855.463-.696.696.232 1.276.927 1.276 1.276 0 1.392-.928 1.392-1.972-.116.116-.232.116-.464.232zM43.022 4.523c0-.348-1.044.116-1.044-.464 0-.348.928-.232 1.276-.232 1.044-.232.232 3.247.58 3.827.232.695.464-.116.812.232.463.463-.464.58-.696.58-.348 0-1.972.115-1.972-.232 0-.232.812-.232 1.044-.58.116-.232 0-.58 0-.812a7.772 7.772 0 010-2.32zm-.348-1.972c-.116-1.507 2.32.58.58.58-.232 0-.58-.232-.58-.58zM48.937 4.29c0-.463.348-1.97-.464-1.739-.58.116-.58-.464-.116-.696.116-.116.812 0 .928 0 .347.116.347 0 .463.348.116.348 0 .928 0 1.276v3.479c0 .232-.116.58 0 .811.116.348.232.232.464.348.116.116.58-.116.58.232 0 .58-1.044.464-1.508.464-.115-.116-.231-.232-.231-.464-1.276 1.508-4.291-.116-3.827-1.971-.116-1.044.464-2.203 1.507-2.551.696-.464 1.972-.348 2.204.463zm-2.9 1.856c0 .812.464 2.087 1.508 2.087 1.044.116 1.508-1.16 1.392-2.087 0-2.551-3.015-2.551-2.9 0z" fill="#fff"/><path d="M59.953 4.29c0-.463.348-1.97-.464-1.739-.116 0-.348 0-.348-.116-.464-.464.232-.58.464-.58.348-.116.696 0 1.044 0 .232.232.116.928.116 1.16v4.522c0 .116 0 .464.116.58.116.116.927-.116.811.232 0 .58-1.043.464-1.507.464-.116-.116-.232-.232-.232-.464-1.276 1.508-4.175-.116-3.71-1.971-.117-1.16.463-2.32 1.507-2.667.811-.348 1.855-.116 2.203.58zm-2.9 1.856c0 .812.465 2.087 1.508 2.087 1.044.116 1.508-1.16 1.392-2.087 0-2.551-3.131-2.551-2.9 0zM63.2 6.262v.116c0 .812.463 1.623 1.275 1.74.58.115 1.044-.233 1.392-.696.232-.232.232-.928.58-.696.695.232.116 1.16-.232 1.391-.464.348-.928.58-1.508.58-1.507 0-2.435-1.044-2.435-2.551 0-1.276.58-2.435 1.855-2.667 1.276-.232 2.552.464 2.668 1.74.115 1.159-.58.927-1.508.927-.696 0-1.392 0-2.087.116 0-.116 0-.116 0 0zm2.435-1.856c-.812-.811-2.32-.115-2.32 1.044H66.1c0-.348-.232-.696-.464-1.044zM71.086 3.71c0-.231.232-.347.464-.231.232.116.232.58.232.811 0 .348.116 1.624-.464 1.16-.464-.348.116-.812-.58-1.16-.58-.347-1.623-.116-1.74.58-.231 1.276 3.48.464 3.016 2.551-.232 1.276-2.552 1.74-3.48.812 0 .232 0 .464-.347.58-.464-.116-.232-.58-.348-.928v-.464c-.232-.58.348-1.16.58-.463.116.116 0 .463 0 .58.232.463.696.58 1.16.695.695.116 1.97-.232 1.507-1.275-.58-1.16-3.015 0-3.131-1.856-.116-1.507 2.087-2.32 3.13-1.391zM74.1 4.523c0-.348-1.159.116-1.043-.464 0-.348.928-.232 1.276-.232 1.043-.232.231 3.363.463 3.943.232.695.58-.116.928.232.464.463-.464.58-.812.58-.348 0-1.855.115-1.855-.233 0-.231.812-.231 1.044-.58.116-.231 0-.58 0-.811V4.523zm-.347-1.972c-.116-1.507 2.319.58.58.58-.232 0-.58-.232-.58-.58zM77.232 7.77c-1.16 0-.928-1.624 0-1.856-.696-1.623.812-2.435 2.203-2.435 0-.928 1.16-1.16 1.856-.696.348.232.695 1.044 0 1.276-.232 0-.464-.116-.464-.348 0-.116.116-.348.232-.348-.348-.58-1.044 0-1.044.348 1.392.812.58 2.783-.812 3.015-.463.116-1.855-.232-1.971.116 0 1.044 4.407-.232 4.175 2.32-.116 1.739-3.827 1.623-4.639.579l-.232-.232c-.116-.812-.116-1.16.696-1.74zm.464.58a.906.906 0 00-.464.463v.232c.232 1.276 3.363 1.276 3.363 0-.232-1.16-2.203-1.043-2.9-.696zm0-3.363c-.116 1.391 2.203 1.275 2.32.115.115-1.275-2.204-1.275-2.32-.115z" fill="#E84E27"/><path d="M84.074 3.595c1.392-.58 2.783.232 2.899 1.624 0 .695-.348 1.97 0 2.55.232.349 1.044.117.928.58-.116.348-.696.232-.928.232-.348 0-1.971.116-1.971-.231 0-.232.811-.232 1.043-.58.116-.232 0-.696 0-.928 0-.928.348-2.32-.811-2.667-1.392-.348-1.624 1.16-1.624 2.203 0 .348-.116.928 0 1.276.116.58.116.232.464.464.116 0 .58-.348.464.232 0 .347-2.9.463-2.9 0 0-.116 0-.116.117-.232.58-.116.811.232 1.043-.58.116-.464 0-1.044 0-1.508 0-.464.116-1.043 0-1.507-.232-.812-.811-.116-1.043-.58 0-.232.116-.348.348-.348.347.116 1.391-.116 1.16.696.115-.348.463-.58.81-.696z" fill="#E84E27"/><defs><linearGradient id="epaint0_linear" x1="127.814" y1="42.776" x2="184.845" y2="53.004" gradientUnits="userSpaceOnUse"><stop stop-color="#E2312D"/><stop offset=".47" stop-color="#E86031"/><stop offset="1" stop-color="#F08F34"/></linearGradient></defs></svg><svg viewBox="0 0 512 512" fill="#FFF" id="reddit" xmlns="http://www.w3.org/2000/svg"><path d="M309.605 343.348c-11.468 11.468-36.042 15.562-53.554 15.562-17.563 0-42.086-4.094-53.555-15.562a6.887 6.887 0 00-9.777 0 6.887 6.887 0 000 9.777c18.176 18.176 53.094 19.61 63.332 19.61s45.105-1.434 63.336-19.61a6.987 6.987 0 000-9.777 6.892 6.892 0 00-9.782 0zm0 0M224 282.676C224 267.98 212.02 256 197.324 256c-14.691 0-26.676 11.98-26.676 26.676 0 14.691 11.985 26.676 26.676 26.676 14.696 0 26.676-11.98 26.676-26.676zm0 0"/><path d="M256 0C114.637 0 0 114.637 0 256s114.637 256 256 256 256-114.637 256-256S397.363 0 256 0zm148.531 290.148c.563 3.688.871 7.426.871 11.215 0 57.446-66.867 103.989-149.351 103.989s-149.352-46.543-149.352-103.989c0-3.84.309-7.629.871-11.316-13.004-5.836-22.066-18.89-22.066-34.047 0-20.582 16.691-37.324 37.324-37.324 10.035 0 19.098 3.941 25.805 10.394 25.906-18.687 61.75-30.62 101.633-31.644 0-.512 18.636-89.293 18.636-89.293a6.57 6.57 0 012.868-4.196c1.484-.972 3.277-1.28 5.02-.921l62.054 13.207c4.351-8.805 13.308-14.899 23.804-14.899 14.747 0 26.676 11.93 26.676 26.676s-11.93 26.676-26.676 26.676c-14.285 0-25.855-11.266-26.52-25.395l-55.554-11.828-16.996 80.027c39.168 1.38 74.344 13.258 99.84 31.692 6.707-6.5 15.82-10.496 25.906-10.496 20.637 0 37.324 16.691 37.324 37.324 0 15.258-9.164 28.312-22.117 34.148zm0 0"/><path d="M314.676 256C299.98 256 288 267.98 288 282.676c0 14.691 11.98 26.676 26.676 26.676 14.691 0 26.676-11.985 26.676-26.676 0-14.696-11.98-26.676-26.676-26.676zm0 0"/></svg><svg viewBox="0 0 64 64" id="speed" xmlns="http://www.w3.org/2000/svg"><path d="M45 43c3.86 0 7-3.14 7-7s-3.14-7-7-7-7 3.14-7 7 3.14 7 7 7zm0-12c2.757 0 5 2.243 5 5s-2.243 5-5 5-5-2.243-5-5 2.243-5 5-5z"/><path d="M45 39c1.654 0 3-1.346 3-3s-1.346-3-3-3-3 1.346-3 3 1.346 3 3 3zm0-4c.551 0 1 .449 1 1s-.449 1-1 1-1-.449-1-1 .449-1 1-1z"/><path d="M51.117 52.1l.687-1.1H63.22l-1.309-6.542-6.026-5.021A24.73 24.73 0 0056 37.19c0-.064-.006-.126-.007-.19H56V4c0-1.654-1.346-3-3-3H4C2.346 1 1 2.346 1 4v42c0 1.654 1.346 3 3 3h23.18l-.4 2h11.416l.687 1.1-.388.971a6.008 6.008 0 001.97 7.028l1.893 1.42 1.915-3.829A6.197 6.197 0 0146 62v1h2.48l1.664-2.08a8.258 8.258 0 001.217-8.211zM40.554 51l-1.097-1.755A22.673 22.673 0 0138.238 47h13.523a22.786 22.786 0 01-1.219 2.245L49.446 51zm-2.13-24h13.152A22.653 22.653 0 0154 37.19c0 2.68-.472 5.32-1.383 7.81H37.383A22.718 22.718 0 0136 37.19c0-3.566.84-7.037 2.424-10.19zm1.133-2c.09-.141.17-.288.263-.428l2.902-4.354a2.735 2.735 0 014.555.001l2.902 4.354c.093.14.173.286.263.428H39.557zm20.532 20.542L60.78 49h-7.788a24.701 24.701 0 002.568-7.232zM4 3h49c.551 0 1 .449 1 1v9H3V4c0-.551.449-1 1-1zm23.58 44H4c-.551 0-1-.449-1-1V15h51v12.479a24.8 24.8 0 00-2.156-4.017l-2.902-4.354C48.061 17.789 46.588 17 45 17s-3.061.789-3.941 2.109l-2.902 4.354A24.662 24.662 0 0034 37.19c0 .753.047 1.501.115 2.246l-6.026 5.021zm2.331-1.458l4.529-3.774A24.701 24.701 0 0037.008 49H29.22zm18.672 14.129l-.708.884a8.18 8.18 0 00-2.289-4.384l-1.859-1.859-2.084 4.169a4.007 4.007 0 01-1.29-4.668l.324-.813h8.646l.181.453a6.256 6.256 0 01-.921 6.218z"/><path d="M11 5H5v6h6zM9 9H7V7h2zM19 5h-6v6h6zm-2 4h-2V7h2zM27 5h-6v6h6zm-2 4h-2V7h2zM29 17h-6v20h-2V25h-6v12h-2v-8H7v8H5v2h26v-2h-2zm-4 2h2v18h-2zm-8 8h2v10h-2zm-8 4h2v6H9zM5 17h2v2H5zM9 17h10v2H9zM5 21h2v2H5z"/><path d="M9 21h10v2H9z"/></svg><svg fill="#FFF" viewBox="0 0 49.866 49.866" id="symbols" xmlns="http://www.w3.org/2000/svg"><path d="M13.201 18.265h-1.658c-.415.001-.454.042-.454.462v12.291c0 .343.059.4.397.402.542.003 1.085 0 1.629 0 .511 0 .558-.045.558-.549V20.438v-1.715c-.001-.389-.073-.457-.472-.458zM2.339 18.266a85.129 85.129 0 00-1.516.001c-.53.008-.823.31-.823.842v11.866c0 .349.047.396.397.396.514.004 1.029.004 1.543 0 .54-.004.811-.273.811-.81V18.695c.001-.347-.072-.426-.412-.429zM9.724 31.072c-.147-1.464-.68-2.763-1.705-3.836-1.104-1.154-2.462-1.789-3.943-1.936-.478-.009-.482-.009-.469.352.005.133.031.264.051.396.265 1.755 1.123 3.153 2.551 4.198.936.688 1.995 1.045 3.148 1.153.343.033.401.009.367-.327zM9.365 18.298c-.131.021-.267.013-.397.033-1.502.239-2.777.904-3.791 2.043-.929 1.042-1.445 2.271-1.567 3.659-.031.362-.011.363.37.412.523-.129 1.067-.208 1.567-.398 2.497-.948 3.863-2.788 4.178-5.428.04-.335-.016-.373-.36-.321zM22.763 24.496c-.038-1.457-.867-2.432-2.269-2.777-1.555-.386-3.096-.16-4.629.167-.182.038-.257.169-.253.36.008.341.002.685.002 1.028 0 .489.064.513.548.484a52.359 52.359 0 012.964-.098c.59 0 .948.333 1.046.867.031.166.019.342.019.513.002.663.001.669-.653.661-.914-.009-1.825.021-2.71.289-.914.274-1.571.815-1.769 1.789a4.336 4.336 0 00.039 1.896c.212.875.742 1.471 1.608 1.729.962.283 1.915.242 2.83-.201.262-.127.511-.283.804-.446.012.091.021.137.023.184.022.43.076.484.512.484.514.001 1.028.002 1.543 0 .299-.002.405-.097.404-.388-.013-2.181-.002-4.363-.059-6.541zm-2.825 4.912c-.56.217-1.126.334-1.727.23-.374-.064-.648-.286-.68-.666a3.803 3.803 0 01.06-1.044c.073-.362.339-.627.702-.673.592-.073 1.191-.089 1.787-.11.053-.002.154.127.159.201.019.294.008.59.008.885 0 .23-.018.46.005.687.03.264-.073.398-.314.49zM48.592 20.968v.075h.21v.613h.09v-.613h.21v-.075zM49.823 20.968h-.119l-.123.333c-.029.087-.055.162-.072.232h-.001c-.021-.072-.042-.148-.07-.232l-.117-.333h-.113l-.047.688h.084l.02-.296a9.67 9.67 0 00.013-.304h.002c.021.081.047.17.079.267l.112.329h.067l.121-.335c.035-.095.062-.181.086-.261h.002c0 .084.006.202.013.297l.016.303h.09l-.043-.688zM39.115 25.146a7.65 7.65 0 00-.18-1.557c-.225-1.055-.83-1.798-1.941-1.992-1.213-.215-2.369-.043-3.41.663-.102.068-.204.13-.379.241-.008-.205-.02-.332-.022-.461-.008-.336-.066-.399-.404-.401-.537-.003-1.069-.004-1.602.001-.314.002-.408.1-.408.413v8.918c0 .349.094.445.436.447.591.002 1.182-.006 1.773.005.264.003.383-.101.378-.372-.01-.59-.003-1.18-.003-1.772 0-1.572-.003-3.144.006-4.716 0-.13.034-.325.121-.379.656-.404 1.36-.652 2.143-.522.431.071.733.324.814.769.057.308.1.621.1.933.012 1.869.006 3.736.006 5.604 0 .407.047.452.464.452.534.003 1.069.003 1.602 0 .461 0 .514-.051.514-.502 0-1.922.013-3.846-.008-5.772zM48.216 25.035a5.978 5.978 0 00-.06-.884c-.178-1.14-.789-1.954-1.896-2.323a5.778 5.778 0 00-1.446-.293c-1.164-.073-2.314.066-3.453.323-.25.058-.355.194-.354.438v.943c0 .506.07.545.562.519.98-.055 1.959-.099 2.938-.105.632-.002.986.323 1.093.948.048.28.022.571.037.854.01.188-.079.25-.259.244-.41-.006-.825-.041-1.229.008-.695.082-1.4.162-2.072.35-.891.251-1.469.874-1.615 1.812-.059.389-.049.793-.03 1.189.076 1.608 1.303 2.664 2.908 2.534.811-.063 1.575-.256 2.239-.751.045-.032.102-.05.164-.078.029.044.047.055.049.073a.87.87 0 01.017.144c.022.415.049.44.475.44.496.003.99.003 1.486 0 .399 0 .448-.045.448-.438.001-1.982.003-3.965-.002-5.947zm-2.519 3.974c.007.182-.071.278-.23.349-.585.259-1.186.392-1.829.287-.463-.079-.734-.393-.726-.975.015-.989.233-1.436 1.436-1.527.359-.028.724.001 1.085-.007.203-.009.268.086.264.274-.009.276-.004.554-.004.828.002.256-.008.512.004.771zM29.692 21.877c.001-.255-.113-.364-.366-.354a3.64 3.64 0 00-2.018.701c-.082.06-.164.115-.287.203-.01-.137-.021-.218-.021-.3-.008-.41-.08-.486-.481-.486-.517-.002-1.029-.001-1.544-.001-.471.001-.549.077-.549.546v8.718c0 .422.093.516.494.516.542.003 1.087.003 1.63 0 .438 0 .508-.066.508-.518.001-2.113.003-4.229-.004-6.347 0-.209.061-.328.253-.419.636-.299 1.288-.523 2.003-.494.262.011.389-.088.383-.365a34.39 34.39 0 01-.001-1.4z"/></svg><svg viewBox="0 0 201.506 201.506" id="web" xmlns="http://www.w3.org/2000/svg"><path d="M100.753 0C45.198 0 0 45.198 0 100.753s45.198 100.753 100.753 100.753 100.753-45.198 100.753-100.753S156.308 0 100.753 0zm0 194.56c-51.726 0-93.807-42.081-93.807-93.807S49.027 6.946 100.753 6.946s93.807 42.081 93.807 93.807-42.081 93.807-93.807 93.807z"/><path d="M201.172 93.691c-1.044-15.048-5.326-29.314-12.725-42.404l-.98-1.734H74.324c-14.601 0-26.477 11.878-26.477 26.479V97.34h153.58l-.255-3.649zM54.673 90.513V76.032c0-10.837 8.815-19.652 19.651-19.652h109.138a92.52 92.52 0 0110.578 34.133H54.673z"/><path d="M73.446 63.206c-6.588 0-11.947 5.361-11.947 11.947 0 6.586 5.359 11.947 11.947 11.947 6.588 0 11.947-5.361 11.947-11.947 0-6.586-5.359-11.947-11.947-11.947zm0 17.067a5.126 5.126 0 01-5.12-5.12 5.126 5.126 0 015.12-5.12 5.126 5.126 0 015.12 5.12 5.126 5.126 0 01-5.12 5.12zM100.753 63.206c-6.588 0-11.947 5.361-11.947 11.947 0 6.586 5.359 11.947 11.947 11.947 6.588 0 11.947-5.361 11.947-11.947 0-6.586-5.359-11.947-11.947-11.947zm0 17.067a5.126 5.126 0 01-5.12-5.12c0-2.823 2.297-5.12 5.12-5.12s5.12 2.297 5.12 5.12a5.126 5.126 0 01-5.12 5.12zM128.06 63.148c-6.62 0-12.005 5.385-12.005 12.005 0 6.62 5.385 12.005 12.005 12.005 6.62 0 12.005-5.385 12.005-12.005-.001-6.62-5.385-12.005-12.005-12.005zm0 17.067c-2.79 0-5.062-2.27-5.062-5.062s2.272-5.062 5.062-5.062c2.79 0 5.062 2.27 5.062 5.062s-2.272 5.062-5.062 5.062zM201.173 93.689l-.22-3.176H47.846v95.928l1.674.992a100.574 100.574 0 0051.232 14.013c55.523 0 100.693-45.172 100.693-100.693.001-2.132-.086-4.378-.272-7.064zM100.753 194.62a93.767 93.767 0 01-46.08-12.092V97.34h139.872c.049 1.21.075 2.33.075 3.413 0 51.758-42.109 93.867-93.867 93.867z"/><path d="M99.046 110.993c-13.175 0-23.893 10.718-23.893 23.893s10.718 23.893 23.893 23.893 23.893-10.718 23.893-23.893-10.717-23.893-23.893-23.893zm0 40.96c-9.411 0-17.067-7.656-17.067-17.067 0-9.411 7.656-17.067 17.067-17.067s17.067 7.656 17.067 17.067c0 9.411-7.656 17.067-17.067 17.067z"/><path d="M139.006 170.02l-22.187-22.187a3.412 3.412 0 10-4.826 4.826l22.187 22.187c.666.667 1.539 1 2.413 1a3.412 3.412 0 002.413-5.826z"/></svg><svg viewBox="0 0 64 64" id="web-site" xmlns="http://www.w3.org/2000/svg"><path d="M61 44h-3V3a1 1 0 00-1-1H3a1 1 0 00-1 1v48a1 1 0 001 1h23.18A3.01 3.01 0 0029 54h1v7a1 1 0 001 1h30a1 1 0 001-1V45a1 1 0 00-1-1zM4 4h52v4H4zm22 35v11H4V10h52v34h-2v-5a3.009 3.009 0 00-3-3H29a3.009 3.009 0 00-3 3zm26 0v1H28v-1a1 1 0 011-1h22a1 1 0 011 1zm-22 6v7h-1a1 1 0 01-1-1v-9h24v2H31a1 1 0 00-1 1zm4.86 1A4.017 4.017 0 0132 48.86V46zM32 60v-2.86A4.017 4.017 0 0134.86 60zm28 0h-2.86A4.017 4.017 0 0160 57.14zm0-4.91A5.992 5.992 0 0055.09 60H36.91A5.992 5.992 0 0032 55.09v-4.18A5.992 5.992 0 0036.91 46h18.18A5.992 5.992 0 0060 50.91zm0-6.23A4.017 4.017 0 0157.14 46H60z"/><path d="M46 47a6 6 0 106 6 6.006 6.006 0 00-6-6zm0 10a4 4 0 114-4 4 4 0 01-4 4zM27 35a3 3 0 000-6H13a3 3 0 103 3 2.966 2.966 0 00-.184-1h8.368A2.966 2.966 0 0024 32a3 3 0 003 3zm1-3a1 1 0 11-1-1 1 1 0 011 1zm-14 0a1 1 0 11-1-1 1 1 0 011 1zM31.77 15.36A.992.992 0 0031 15H12v-2a1 1 0 00-1-1H6v2h4v13a1 1 0 001 1h18a1 1 0 00.98-.82l2-11a.977.977 0 00-.21-.82zM28.17 26H12v-9h17.8zM6 5h2v2H6zM10 5h2v2h-2zM14 5h2v2h-2zM43 29a7 7 0 10-7-7 7.008 7.008 0 007 7zm0-12a5 5 0 11-5 5 5.006 5.006 0 015-5z"/><path d="M42 25a1 1 0 00.707-.293l4-4-1.414-1.414L42 22.586l-1.293-1.293-1.414 1.414 2 2A1 1 0 0042 25zM36 31h4v2h-4zM42 31h8v2h-8z"/></svg><svg viewBox="0 0 64 64" id="website" xmlns="http://www.w3.org/2000/svg"><path d="M.019 60.996a1 1 0 001 1h39.992a1 1 0 001-1v-3.004h3.004a1 1 0 001-1v-2.998h3.016a1 1 0 001-1V21.976c5.964-.372 11.218-3.952 13.872-9.537a1.002 1.002 0 000-.859C61.095 5.674 55.385 2.005 49 2.005c-6.173 0-11.706 3.436-14.604 8.999H11.021c-1.654 0-3 1.346-3 3v.998h-.999l-.009.002-.009-.002c-1.654 0-3 1.346-3 3v1.004h-.985l-.009.002-.009-.002c-1.654 0-3 1.346-3 3v2c0 .031.015.057.018.087v36.903zm39.992-1H2.019V25.005h2.004v31.987a1 1 0 001 1h34.988zm4.004-4.004H6.022V21.001h2.016v31.993a1 1 0 001 1h34.977zm-33.977-3.998V17.003h27.216c2.833 2.938 6.633 4.732 10.776 4.975v30.017H10.038zm38.961-47.99c5.45 0 10.345 3.055 12.885 8.005-2.539 4.95-7.435 8.004-12.885 8.004-4.083 0-7.854-1.715-10.558-4.656-.023-.027-.043-.056-.07-.08a15.237 15.237 0 01-2.257-3.268c2.54-4.95 7.435-8.005 12.885-8.005zm-37.978 8.999h1.02c-.552 0-.994.447-.994 1s.452 1 1.005 1a1 1 0 100-2h2.989c-.552 0-.994.447-.994 1s.452 1 1.005 1a1 1 0 100-2h2.989c-.552 0-.994.447-.994 1s.452 1 1.005 1a1 1 0 100-2H34.39c.364.701.771 1.369 1.216 2H10.021v-1a1 1 0 011-1zm-4.016 3.998l.009-.002.009.002h1.016v2H6.005v-1a1 1 0 011-1zm-4.004 4.004l.009-.002.009.002h1.004v2H2.001v-1a1 1 0 011-1z"/><path d="M43.003 22.004H15.011a1 1 0 00-1 1v11.999a1 1 0 001 1h27.992a1 1 0 001-1V23.004a1 1 0 00-1-1zm-16.996 9.6l1.702 2.129-.201.27h-3.42zm8-2.935l4.001 5.334h-8.002zm7.996 5.334h-1.497l-5.699-7.6c-.029-.04-.072-.062-.106-.095-.034-.034-.055-.076-.094-.105-.016-.012-.034-.014-.051-.024a.956.956 0 00-.194-.092c-.055-.021-.105-.046-.162-.057-.067-.013-.132-.01-.2-.01-.062.001-.121-.002-.181.01-.062.012-.116.037-.175.061a.961.961 0 00-.186.089c-.017.011-.036.013-.052.024-.04.029-.061.072-.095.105-.033.034-.076.056-.105.095l-4.258 5.677-2.161-2.702c-.024-.03-.058-.044-.085-.07-.026-.027-.041-.062-.071-.086-.024-.02-.056-.024-.081-.042a1.072 1.072 0 00-.356-.147 1.014 1.014 0 00-.19-.015.93.93 0 00-.183.015.95.95 0 00-.188.059.94.94 0 00-.17.087c-.026.018-.058.022-.083.043-.03.024-.045.06-.072.086-.026.026-.06.041-.084.07l-3.7 4.625h-5.515v-9.999h25.992v9.998zM15.011 39.994h14.996a1 1 0 100-2H15.011a1 1 0 100 2zM15.011 43.994h3.995a1 1 0 100-2h-3.995a1 1 0 100 2zM43.003 41.994H24.007a1 1 0 100 2h18.996a1 1 0 100-2zM37.007 45.994H15.011a1 1 0 100 2h21.996a1 1 0 100-2zM43.003 45.994h-1.996a1 1 0 100 2h1.996a1 1 0 100-2zM43.003 37.994h-8.996a1 1 0 100 2h8.996a1 1 0 100-2z"/><path d="M19.037 28.004a1 1 0 100-2h-.011c-.552 0-.994.447-.994 1s.452 1 1.005 1zM49.001 18.011c3.309 0 6-2.692 6-6.002s-2.691-6.003-6-6.003-6 2.693-6 6.003 2.691 6.002 6 6.002zm0-10.005c2.206 0 4 1.796 4 4.003s-1.794 4.002-4 4.002-4-1.795-4-4.002 1.794-4.003 4-4.003z"/></svg></svg>