<svg width="186" height="77" viewBox="0 0 186 77" fill="none" xmlns="http://www.w3.org/2000/svg">
<path d="M18.2058 41.3992H17.742L18.6697 77.0001H0.231445V14.0317H26.0914L36.76 47.8932H37.1079L46.2691 14.0317H72.9408V77.0001H53.8067L54.3865 41.6311L53.9227 41.5152L42.9061 77.0001H28.9905L18.2058 41.3992Z" fill="white"/>
<path d="M127.56 77.0001V14.0317H154.696C164.321 14.0317 171.858 16.8149 177.309 22.2652C182.759 27.7155 185.542 35.485 185.542 45.226C185.542 55.4308 182.875 63.3163 177.424 68.7666C171.974 74.2169 164.437 77.0001 154.696 77.0001H127.56V77.0001ZM143.911 28.1793V62.9685H151.681C157.943 62.9685 162.349 61.5769 165.016 58.7938C167.684 56.0106 169.075 51.488 169.075 45.226C169.075 33.8615 163.277 28.1793 151.681 28.1793H143.911Z" fill="url(#paint0_linear)"/>
<path d="M73.2891 62.9683L96.9457 0H113.644L137.185 62.9683H120.138L115.268 48.8208H95.2062L90.2198 62.9683H73.2891V62.9683ZM105.063 17.5105L99.4969 34.7891H110.745L105.295 17.5105H105.063Z" fill="white"/>
<path d="M1.73946 4.29053C2.31928 3.36282 4.1747 3.13089 4.63855 4.29053C5.21837 3.47878 6.49397 3.36282 7.30572 3.82667C8.0015 4.29053 8.0015 4.87035 8.0015 5.68209C8.0015 6.26191 7.88554 7.07366 8.0015 7.53751C8.11747 7.88541 8.0015 7.88541 8.46536 8.00137C8.69728 8.11733 9.16114 7.88541 9.16114 8.34926C9.16114 8.69715 7.76957 8.58119 7.53765 8.58119C7.30572 8.58119 6.60994 8.69715 6.37801 8.58119C5.91415 8.11733 6.60994 8.11733 6.84186 8.00137C7.07379 7.76944 7.18976 7.88541 7.30572 7.42155C7.42168 6.9577 7.30572 6.49384 7.30572 6.02999C7.30572 5.21824 7.18975 3.94264 6.03012 4.29053C4.87048 4.52246 4.98644 5.91402 4.98644 6.84173C4.98644 7.07366 4.87048 7.65348 4.98644 7.88541C5.21837 8.11733 5.33433 7.88541 5.56626 8.00137C6.7259 8.46522 4.98644 8.46522 4.52259 8.46522C4.1747 8.46522 3.01506 8.58119 3.01506 8.11733C3.01506 7.88541 3.82681 7.88541 4.05873 7.65348C4.29066 7.30559 4.05873 6.49384 4.05873 6.14595C4.05873 5.56613 4.1747 4.87035 3.71084 4.40649C3.01506 3.71071 1.97138 4.63842 1.85542 5.45017C1.73946 5.91402 1.85542 6.49384 1.85542 6.9577C1.85542 7.07366 1.73946 7.42155 1.85542 7.65348C1.97138 8.11733 2.08735 7.76944 2.43524 8.00137C3.82681 8.58119 1.50753 8.58119 1.04367 8.58119C0.811747 8.58119 -0.347891 8.58119 0.115964 8.11733C0.347891 8.00137 0.579819 8.11733 0.695783 8.00137C1.2756 7.76944 1.04367 7.30559 1.04367 6.72577C1.04367 6.14595 1.15964 5.3342 1.04367 4.75438C0.92771 4.29053 0.811747 4.40649 0.463855 4.29053C0.347891 4.17456 0 4.52246 0 4.0586C0.115964 3.71071 1.85542 3.59475 1.73946 4.29053C1.85542 4.29053 1.85542 4.29053 1.73946 4.29053Z" fill="white"/>
<path d="M10.9001 6.26189C10.9001 6.49382 10.9001 6.49382 10.9001 6.60978C10.9001 7.42153 11.5959 8.11731 12.4077 8.11731C13.2194 8.11731 13.4513 7.65346 13.7992 7.07364C13.7992 6.95768 13.9152 6.60978 14.2631 6.72575C14.9589 6.95768 14.379 7.88539 14.0311 8.11731C13.5673 8.4652 13.1034 8.69713 12.5236 8.69713C11.0161 8.69713 10.0884 7.65346 10.0884 6.14593C10.0884 4.87033 10.5522 3.71069 11.8278 3.47876C13.1034 3.24683 14.2631 3.94262 14.495 5.21822C14.611 6.37786 13.9152 6.14593 12.9875 6.14593C12.2917 6.14593 11.5959 6.14593 10.9001 6.26189C10.9001 6.14593 10.9001 6.14593 10.9001 6.26189ZM13.3354 4.40647C12.5236 3.71069 11.0161 4.29051 11.0161 5.45015H13.7992C13.6833 5.10225 13.5673 4.75436 13.3354 4.40647Z" fill="white"/>
<path d="M19.1339 4.29049C19.1339 3.82664 19.4818 2.31911 18.67 2.55103C18.0902 2.667 17.9743 2.08718 18.4381 1.85525C18.5541 1.73929 19.2499 1.85525 19.3658 1.85525C19.7137 1.97121 19.7137 1.85525 19.8297 2.20314C19.9456 2.55103 19.8297 3.13085 19.8297 3.47874C19.8297 4.63838 19.8297 5.79802 19.8297 6.95766C19.8297 7.18959 19.7137 7.53748 19.8297 7.7694C20.0616 8.23326 19.9456 8.00133 20.2935 8.1173C20.4095 8.23326 20.8734 8.00133 20.8734 8.34922C20.8734 8.92904 19.8297 8.81308 19.4818 8.81308C19.3658 8.69712 19.2499 8.58115 19.2499 8.34922C17.9743 9.85675 14.9592 8.34922 15.4231 6.37784C15.3071 5.33416 15.8869 4.17453 16.9306 3.82664C17.6264 3.36278 18.902 3.47874 19.1339 4.29049ZM16.2348 6.14591C16.2348 6.95766 16.6987 8.23326 17.7423 8.23326C18.786 8.34922 19.2499 7.07362 19.2499 6.14591C19.1339 3.71067 16.1188 3.59471 16.2348 6.14591Z" fill="white"/>
<path d="M22.6131 4.52264C22.6131 4.17475 21.5694 4.63861 21.5694 4.05879C21.5694 3.7109 22.6131 3.82686 22.845 3.82686C24.1206 3.59493 23.1929 7.07385 23.4248 7.76963C23.6567 8.11752 24.3525 7.76963 24.3525 8.11752C24.4685 8.58138 23.6567 8.46541 23.4248 8.46541C23.0769 8.46541 21.4534 8.58138 21.5694 8.23348C21.5694 8.00156 22.3811 8.00156 22.6131 7.65367C22.729 7.42174 22.6131 7.07385 22.6131 6.84192C22.6131 6.03017 22.6131 5.33439 22.6131 4.52264ZM22.2652 2.55126C22.2652 2.0874 22.961 1.97144 23.1929 2.20337C23.6567 2.55126 23.4248 3.13108 22.845 3.13108C22.6131 3.13108 22.2652 2.89915 22.2652 2.55126Z" fill="white"/>
<path d="M26.2079 4.63855C26.2079 4.75451 26.3239 4.75451 26.3239 4.87048C26.3239 5.79819 24.8164 5.21837 25.2802 4.17469C25.976 2.78313 28.6432 3.24698 28.9911 4.63855C28.9911 5.10241 28.6432 8.23343 29.339 8.11746C29.9188 8.0015 29.5709 7.07379 29.6869 6.84186C30.0347 6.37801 30.2667 6.60993 30.3826 7.07379C30.7305 8.34939 28.7591 9.39307 28.1793 8.0015C27.4835 8.92921 25.6281 8.92921 25.0483 7.88554C24.4685 6.95783 25.2802 5.91415 26.2079 5.68222C26.7878 5.56626 27.5995 5.91415 27.9474 5.21837C28.6432 4.05873 26.6718 3.59488 25.976 4.40662C26.092 4.52259 26.2079 4.63855 26.2079 4.63855ZM27.7155 6.37801C27.1357 6.49397 26.2079 6.37801 25.8601 6.84186C25.1643 7.53764 26.092 8.11746 26.7878 8.11746C28.0634 8.11746 28.1793 7.07379 28.1793 6.14608C27.9474 6.26204 27.8314 6.26204 27.7155 6.37801Z" fill="white"/>
<path d="M37.2246 4.63885C37.2246 4.75481 37.3406 4.75481 37.3406 4.87078C37.3406 5.79849 35.949 5.21867 36.181 4.29096C36.7608 2.78343 39.5439 3.13132 39.8918 4.63885C39.8918 5.21867 39.5439 8.34969 40.3557 8.0018C40.9355 7.76987 40.4716 7.30602 40.5876 6.84216C40.8195 6.14638 41.1674 6.49427 41.2834 6.95813C41.6313 8.23373 39.7758 9.2774 39.0801 7.88584C38.3843 8.81355 36.6448 8.81355 35.949 7.88584C35.1373 6.95813 36.065 5.79849 36.9927 5.56656C37.5725 5.4506 38.5002 5.68252 38.8481 5.10271C39.5439 3.94307 37.4566 3.59518 36.8767 4.40692C37.1087 4.52289 37.2246 4.63885 37.2246 4.63885ZM38.6162 6.37831C38.0364 6.49427 37.1087 6.37831 36.7608 6.84216C36.065 7.53795 36.9927 8.11777 37.6885 8.11777C38.9641 8.11777 39.0801 7.19005 39.0801 6.14638C38.9641 6.26234 38.8481 6.26234 38.6162 6.37831Z" fill="white"/>
<path d="M43.0222 4.52266C43.0222 4.17477 41.9785 4.63862 41.9785 4.0588C41.9785 3.71091 42.9062 3.82688 43.2541 3.82688C44.2978 3.59495 43.486 7.07386 43.8339 7.65368C44.0659 8.34946 44.2978 7.53772 44.6457 7.88561C45.1095 8.34946 44.1818 8.46543 43.9499 8.46543C43.602 8.46543 41.9785 8.58139 41.9785 8.2335C41.9785 8.00157 42.7903 8.00157 43.0222 7.65368C43.1382 7.42175 43.0222 7.07386 43.0222 6.84193C42.9062 6.03019 42.9062 5.33441 43.0222 4.52266ZM42.6743 2.55127C42.5583 1.04374 44.9936 3.13109 43.2541 3.13109C43.0222 3.13109 42.6743 2.89917 42.6743 2.55127Z" fill="white"/>
<path d="M48.9366 4.29049C48.9366 3.82664 49.2845 2.31911 48.4728 2.55103C47.893 2.667 47.893 2.08718 48.3568 1.85525C48.4728 1.73929 49.1686 1.85525 49.2845 1.85525C49.6324 1.97121 49.6324 1.85525 49.7484 2.20314C49.8643 2.55103 49.7484 3.13085 49.7484 3.47874C49.7484 4.63838 49.7484 5.79802 49.7484 6.95766C49.7484 7.18959 49.6324 7.53748 49.7484 7.7694C49.8643 8.1173 49.9803 8.00133 50.2122 8.1173C50.3282 8.23326 50.7921 8.00133 50.7921 8.34922C50.7921 8.92904 49.7484 8.81308 49.2845 8.81308C49.1686 8.69712 49.0526 8.58115 49.0526 8.34922C47.777 9.85675 44.7619 8.23326 45.2258 6.37784C45.1098 5.33416 45.6896 4.17453 46.7333 3.82664C47.4291 3.36278 48.7047 3.47874 48.9366 4.29049ZM46.0375 6.14591C46.0375 6.95766 46.5014 8.23326 47.5451 8.23326C48.5887 8.34922 49.0526 7.07362 48.9366 6.14591C48.9366 3.59471 45.9216 3.59471 46.0375 6.14591Z" fill="white"/>
<path d="M59.953 4.29049C59.953 3.82664 60.3009 2.31911 59.4891 2.55103C59.3732 2.55103 59.1412 2.55103 59.1412 2.43507C58.6774 1.97121 59.3732 1.85525 59.6051 1.85525C59.953 1.73929 60.3009 1.85525 60.6488 1.85525C60.8807 2.08718 60.7647 2.78296 60.7647 3.01489C60.7647 3.82664 60.7647 4.63838 60.7647 5.56609C60.7647 6.14591 60.7647 6.84169 60.7647 7.53748C60.7647 7.65344 60.7647 8.00133 60.8807 8.1173C60.9967 8.23326 61.8084 8.00133 61.6924 8.34922C61.6924 8.92904 60.6488 8.81308 60.1849 8.81308C60.069 8.69712 59.953 8.58115 59.953 8.34922C58.6774 9.85675 55.7783 8.23326 56.2421 6.37784C56.1262 5.2182 56.706 4.05856 57.7497 3.71067C58.5614 3.36278 59.6051 3.59471 59.953 4.29049ZM57.0539 6.14591C57.0539 6.95766 57.5177 8.23326 58.5614 8.23326C59.6051 8.34922 60.0689 7.07362 59.953 6.14591C59.953 3.59471 56.822 3.59471 57.0539 6.14591Z" fill="#E84E27"/>
<path d="M63.1997 6.26189V6.37786C63.1997 7.1896 63.6635 8.00135 64.4753 8.11731C65.0551 8.23328 65.519 7.88539 65.8668 7.42153C66.0988 7.1896 66.0988 6.49382 66.4467 6.72575C67.1425 6.95768 66.5626 7.88539 66.2147 8.11731C65.7509 8.4652 65.287 8.69713 64.7072 8.69713C63.1997 8.69713 62.272 7.65346 62.272 6.14593C62.272 4.87033 62.8518 3.71069 64.1274 3.47876C65.403 3.24683 66.6786 3.94262 66.7946 5.21822C66.9105 6.37786 66.2147 6.14593 65.287 6.14593C64.5912 6.14593 63.8955 6.14593 63.1997 6.26189C63.1997 6.14593 63.1997 6.14593 63.1997 6.26189ZM65.6349 4.40647C64.8232 3.59473 63.3156 4.29051 63.3156 5.45015H66.0988C66.0988 5.10225 65.8668 4.75436 65.6349 4.40647Z" fill="#E84E27"/>
<path d="M71.0859 3.71061C71.0859 3.47869 71.3178 3.36272 71.5497 3.47869C71.7817 3.59465 71.7817 4.05851 71.7817 4.29043C71.7817 4.63832 71.8976 5.91393 71.3178 5.45007C70.854 5.10218 71.4338 4.63832 70.738 4.29043C70.1582 3.94254 69.1145 4.17447 68.9985 4.87025C68.7666 6.14585 72.4774 5.33411 72.0136 7.42146C71.7817 8.69706 69.4624 9.16091 68.5347 8.2332C68.5347 8.46513 68.5347 8.69706 68.1868 8.81302C67.7229 8.69706 67.9549 8.2332 67.8389 7.88531C67.8389 7.76935 67.8389 7.65338 67.8389 7.42146C67.607 6.84164 68.1868 6.26182 68.4187 6.9576C68.5347 7.07357 68.4187 7.42146 68.4187 7.53742C68.6506 8.00128 69.1145 8.11724 69.5784 8.2332C70.2741 8.34917 71.5497 8.00128 71.0859 6.9576C70.5061 5.79796 68.0708 6.9576 67.9549 5.10218C67.8389 3.59465 70.0422 2.7829 71.0859 3.71061Z" fill="#E84E27"/>
<path d="M74.1007 4.52266C74.1007 4.17477 72.941 4.63862 73.057 4.0588C73.057 3.71091 73.9847 3.82688 74.3326 3.82688C75.3763 3.59495 74.5645 7.18983 74.7964 7.76965C75.0284 8.46543 75.3763 7.65368 75.7242 8.00157C76.188 8.46543 75.2603 8.58139 74.9124 8.58139C74.5645 8.58139 73.057 8.69736 73.057 8.34946C73.057 8.11754 73.8687 8.11754 74.1007 7.76965C74.2166 7.53772 74.1007 7.18983 74.1007 6.9579C74.1007 6.03019 74.1007 5.33441 74.1007 4.52266ZM73.7528 2.55127C73.6368 1.04374 76.072 3.13109 74.3326 3.13109C74.1007 3.13109 73.7528 2.89917 73.7528 2.55127Z" fill="#E84E27"/>
<path d="M77.2319 7.76964C76.0723 7.76964 76.3042 6.14615 77.2319 5.91422C76.5362 4.29073 78.0437 3.47898 79.4352 3.47898C79.4352 2.55127 80.5949 2.31934 81.2907 2.7832C81.6386 3.01512 81.9864 3.82687 81.2907 4.0588C81.0587 4.0588 80.8268 3.94284 80.8268 3.71091C80.8268 3.59494 80.9428 3.36302 81.0587 3.36302C80.7109 2.7832 80.0151 3.36302 80.0151 3.71091C81.4066 4.52265 80.5949 6.49404 79.2033 6.72597C78.7395 6.84193 77.3479 6.49404 77.2319 6.84193C77.2319 7.8856 81.6386 6.61 81.4066 9.16121C81.2907 10.9007 77.5798 10.7847 76.7681 9.74102L76.5362 9.5091C76.4202 8.69735 76.4202 8.34946 77.2319 7.76964ZM77.6958 8.34946C77.4639 8.46542 77.3479 8.58139 77.2319 8.81331C77.2319 8.92928 77.2319 8.92928 77.2319 9.04524C77.4639 10.3208 80.5949 10.3208 80.5949 9.04524C80.363 7.8856 78.3916 8.00157 77.6958 8.34946ZM77.6958 4.98651C77.5798 6.37807 79.8991 6.26211 80.0151 5.10247C80.131 3.82687 77.8118 3.82687 77.6958 4.98651Z" fill="#E84E27"/>
<path d="M84.0739 3.59506C85.4655 3.01524 86.857 3.82699 86.973 5.21855C86.973 5.91433 86.6251 7.18994 86.973 7.76976C87.2049 8.11765 88.0167 7.88572 87.9007 8.34957C87.7848 8.69747 87.2049 8.5815 86.973 8.5815C86.6251 8.5815 85.0016 8.69747 85.0016 8.34957C85.0016 8.11765 85.8134 8.11765 86.0453 7.76976C86.1613 7.53783 86.0453 7.07397 86.0453 6.84204C86.0453 5.91433 86.3932 4.52277 85.2335 4.17488C83.842 3.82699 83.6101 5.33452 83.6101 6.37819C83.6101 6.72608 83.4941 7.3059 83.6101 7.65379C83.726 8.23361 83.726 7.88572 84.0739 8.11765C84.1899 8.11765 84.6537 7.76976 84.5378 8.34957C84.5378 8.69747 81.6387 8.81343 81.6387 8.34957C81.6387 8.23361 81.6387 8.23361 81.7546 8.11765C82.3345 8.00168 82.5664 8.34957 82.7983 7.53783C82.9143 7.07397 82.7983 6.49415 82.7983 6.0303C82.7983 5.56644 82.9143 4.98662 82.7983 4.52277C82.5664 3.71102 81.9866 4.40681 81.7546 3.94295C81.7546 3.71102 81.8706 3.59506 82.1025 3.59506C82.4504 3.71102 83.4941 3.4791 83.2622 4.29084C83.3781 3.94295 83.726 3.71102 84.0739 3.59506Z" fill="#E84E27"/>
<defs>
<linearGradient id="paint0_linear" x1="127.814" y1="42.7761" x2="184.845" y2="53.0042" gradientUnits="userSpaceOnUse">
<stop stop-color="#E2312D"/>
<stop offset="0.47" stop-color="#E86031"/>
<stop offset="1" stop-color="#F08F34"/>
</linearGradient>
</defs>
</svg>
